HIERARCHY
ROOT joint_Root
{
	OFFSET 0.0 0.0 0.0
	CHANNELS 6 Xposition Yposition Zposition Zrotation Xrotation Yrotation 
	JOINT Hips
	{
		OFFSET 4.5925 91.4895 -427.239
		CHANNELS 6 Xposition Yposition Zposition Zrotation Xrotation Yrotation 
		JOINT Spine
		{
			OFFSET 15.7357 0.0 0.0
			CHANNELS 6 Xposition Yposition Zposition Zrotation Xrotation Yrotation 
			JOINT Chest
			{
				OFFSET 8.98455 -0.406207 0.0
				CHANNELS 6 Xposition Yposition Zposition Zrotation Xrotation Yrotation 
				JOINT Neck
				{
					OFFSET 16.3773 0.0 0.0
					CHANNELS 6 Xposition Yposition Zposition Zrotation Xrotation Yrotation 
					JOINT Head
					{
						OFFSET 6.45672 0.0 0.0
						CHANNELS 6 Xposition Yposition Zposition Zrotation Xrotation Yrotation 
						End Site
						{
							OFFSET 0.0 0.0 0.0
						}
					}
				}
				JOINT Shoulder_L
				{
					OFFSET 12.9942 -0.242716 4.98039
					CHANNELS 6 Xposition Yposition Zposition Zrotation Xrotation Yrotation 
					JOINT UpperArm_L
					{
						OFFSET 5.34809 0.0 0.0
						CHANNELS 6 Xposition Yposition Zposition Zrotation Xrotation Yrotation 
						JOINT LowerArm_L
						{
							OFFSET 24.3286 1.87007e-05 0.0
							CHANNELS 6 Xposition Yposition Zposition Zrotation Xrotation Yrotation 
							JOINT Hand_L
							{
								OFFSET 22.2916 0.0 0.0
								CHANNELS 6 Xposition Yposition Zposition Zrotation Xrotation Yrotation 
								End Site
								{
									OFFSET 0.0 0.0 0.0
								}
							}
						}
					}
				}
				JOINT Shoulder_R
				{
					OFFSET 12.9945 -0.242716 -4.98039
					CHANNELS 6 Xposition Yposition Zposition Zrotation Xrotation Yrotation 
					JOINT UpperArm_R
					{
						OFFSET -5.34813 0.0 0.0
						CHANNELS 6 Xposition Yposition Zposition Zrotation Xrotation Yrotation 
						JOINT LowerArm_R
						{
							OFFSET -24.3289 0.000322201 0.0
							CHANNELS 6 Xposition Yposition Zposition Zrotation Xrotation Yrotation 
							JOINT Hand_R
							{
								OFFSET -22.2915 -0.000108084 0.0
								CHANNELS 6 Xposition Yposition Zposition Zrotation Xrotation Yrotation 
								End Site
								{
									OFFSET 0.0 0.0 0.0
								}
							}
						}
					}
				}
			}
		}
		JOINT UpperLeg_L
		{
			OFFSET -2.19248 -6.46944 0.0
			CHANNELS 6 Xposition Yposition Zposition Zrotation Xrotation Yrotation 
			JOINT LowerLeg_L
			{
				OFFSET 39.0811 0.0 -1.23785e-05
				CHANNELS 6 Xposition Yposition Zposition Zrotation Xrotation Yrotation 
				JOINT Foot_L
				{
					OFFSET 40.9854 0.0 -1.26872e-05
					CHANNELS 6 Xposition Yposition Zposition Zrotation Xrotation Yrotation 
					JOINT Toes_L
					{
						OFFSET 11.7543 0.0 0.0
						CHANNELS 6 Xposition Yposition Zposition Zrotation Xrotation Yrotation 
						End Site
						{
							OFFSET 0.0 0.0 0.0
						}
					}
				}
			}
		}
		JOINT UpperLeg_R
		{
			OFFSET -2.19251 6.46944 0.0
			CHANNELS 6 Xposition Yposition Zposition Zrotation Xrotation Yrotation 
			JOINT LowerLeg_R
			{
				OFFSET -39.0811 -0.00228153 -0.0401928
				CHANNELS 6 Xposition Yposition Zposition Zrotation Xrotation Yrotation 
				JOINT Foot_R
				{
					OFFSET -40.9854 0.0 0.0
					CHANNELS 6 Xposition Yposition Zposition Zrotation Xrotation Yrotation 
					JOINT Toes_R
					{
						OFFSET -11.7543 0.0 0.0
						CHANNELS 6 Xposition Yposition Zposition Zrotation Xrotation Yrotation 
						End Site
						{
							OFFSET 0.0 0.0 0.0
						}
					}
				}
			}
		}
	}
}
MOTION
Frames:	4
Frame Time:	0.0333333
0.000000 0.000000 0.000000 0.000000 0.000000 -0.000000 -2.224040 86.041900 -522.712000 88.273200 5.918710 -4.218530 15.735700 0.000005 -0.000001 61.200300 81.658600 -59.704100 8.984550 -0.406207 -0.000000 7.012560 -8.019710 3.485030 16.377300 -0.000001 -0.000001 -0.843682 -1.531590 0.697428 6.456720 -0.000001 -0.000000 -6.570780 1.806960 4.100870 12.994200 -0.242716 4.980390 -89.374200 -2.094840 -73.363500 5.348090 -0.000007 -0.000001 -61.528700 40.966900 -28.843800 24.328600 0.000019 0.000005 10.696600 -2.191180 -101.488000 22.291600 -0.000001 0.000005 14.565100 5.506280 -6.788210 12.994500 -0.242716 -4.980390 88.244100 7.337850 -76.502700 -5.348130 -0.000001 -0.000004 -65.953100 32.818500 23.814700 -24.328900 0.000322 -0.000009 -17.539100 -0.315005 -89.003000 -22.291500 -0.000108 -0.000004 22.323400 5.623710 -12.860300 -2.192480 -6.469440 -0.000000 -172.261000 -8.100170 6.554660 39.081100 -0.000007 -0.000012 -0.052291 0.085657 31.403400 40.985400 -0.000006 -0.000013 -2.451180 4.050660 -76.644100 11.754300 -0.000000 0.000003 -0.055772 -0.317789 -29.686100 -2.192510 6.469440 -0.000001 -174.446000 17.041500 144.555000 -39.081100 -0.002282 -0.040193 0.069298 -0.051525 52.046000 -40.985400 0.000008 0.000006 7.922310 -2.727430 -71.081300 -11.754300 -0.000006 -0.000006 -0.014137 -0.132309 -21.970000
0.000000 0.000000 0.000000 0.000000 0.000000 -0.000000 -2.546500 85.239100 -518.813000 88.162500 5.718620 -3.434010 15.735700 0.000005 -0.000001 67.228400 82.225100 -65.205100 8.984550 -0.406207 -0.000000 6.710000 -6.018420 4.398400 16.377300 -0.000001 -0.000001 -0.345887 -1.911910 0.377249 6.456720 -0.000001 -0.000000 -6.577550 0.353802 3.032010 12.994200 -0.242716 4.980390 -90.015100 0.048160 -72.756000 5.348090 -0.000007 -0.000001 -61.150900 44.171900 -22.557900 24.328600 0.000019 0.000005 13.228000 2.401530 -79.909900 22.291600 -0.000001 0.000005 14.247900 5.503740 -6.687680 12.994500 -0.242716 -4.980390 87.256400 11.559000 -76.549000 -5.348130 -0.000001 -0.000004 -61.842500 34.696600 13.745900 -24.328900 0.000322 -0.000009 -18.288200 -0.000413 -89.998600 -22.291500 -0.000108 -0.000004 24.059800 5.632760 -13.537600 -2.192480 -6.469440 -0.000000 -171.540000 -7.233040 5.515080 39.081100 -0.000007 -0.000012 -0.028983 0.036236 38.656300 40.985400 -0.000006 -0.000013 -3.503790 3.494630 -72.634500 11.754300 -0.000000 0.000003 -0.147534 -0.549858 -39.816700 -2.192510 6.469440 -0.000001 -174.844000 16.105400 147.467000 -39.081100 -0.002282 -0.040193 0.075715 -0.052284 54.196700 -40.985400 0.000008 0.000006 7.345010 -4.445750 -75.776800 -11.754300 -0.000006 -0.000006 -0.005949 -0.070371 -19.437100
0.000000 0.000000 0.000000 0.000000 0.000000 -0.000000 -2.794410 84.948500 -515.027000 87.938900 3.121790 -1.820460 15.735700 0.000005 -0.000001 76.863200 82.431400 -74.436500 8.984550 -0.406207 -0.000000 7.062410 -3.443290 5.061910 16.377300 -0.000001 -0.000001 0.542903 -1.596240 0.262943 6.456720 -0.000001 -0.000000 -6.628220 0.304876 1.298480 12.994200 -0.242716 4.980390 -90.128800 0.406583 -72.425100 5.348090 -0.000007 -0.000001 -63.084400 46.010000 -15.038200 24.328600 0.000019 0.000005 14.094400 9.199500 -57.565900 22.291600 -0.000001 0.000005 12.983900 5.544550 -8.443180 12.994500 -0.242716 -4.980390 87.104800 12.986000 -77.316400 -5.348130 -0.000001 -0.000004 -57.777600 37.798200 -1.650290 -24.328900 0.000322 -0.000009 -16.545100 1.205060 -94.058600 -22.291500 -0.000108 -0.000004 24.953900 5.637790 -13.931400 -2.192480 -6.469440 -0.000000 -171.462000 -8.273760 2.123630 39.081100 -0.000007 -0.000012 0.063110 -0.053534 49.691300 40.985400 -0.000006 -0.000013 -1.872260 1.000020 -61.787700 11.754300 -0.000000 0.000003 -0.284311 -0.769635 -50.327000 -2.192510 6.469440 -0.000001 -175.594000 12.256800 151.661000 -39.081100 -0.002282 -0.040193 0.073071 -0.048610 55.162800 -40.985400 0.000008 0.000006 6.717990 -5.594070 -78.192600 -11.754300 -0.000006 -0.000006 -0.003592 -0.047126 -18.489900
0.000000 0.000000 0.000000 0.000000 0.000000 -0.000000 -3.052930 85.105600 -511.442000 87.845700 1.881500 -0.077138 15.735700 0.000005 -0.000001 80.670300 82.133200 -78.060300 8.984550 -0.406207 -0.000000 7.828700 -2.538680 5.389110 16.377300 -0.000001 -0.000001 1.043890 -1.435260 0.762304 6.456720 -0.000001 -0.000000 -6.451230 1.061660 0.088723 12.994200 -0.242716 4.980390 -90.303300 0.964562 -72.544400 5.348090 -0.000007 -0.000001 -64.139700 46.309200 -1.285550 24.328600 0.000019 0.000005 17.661300 13.064400 -54.632200 22.291600 -0.000001 0.000005 9.835690 5.557110 -9.066140 12.994500 -0.242716 -4.980390 87.489200 12.560700 -78.600900 -5.348130 -0.000001 -0.000004 -52.313300 39.943600 -21.181300 -24.328900 0.000322 -0.000009 -13.300700 2.594480 -100.852000 -22.291500 -0.000108 -0.000004 24.205800 5.637560 -13.917200 -2.192480 -6.469440 -0.000000 -172.414000 -6.501570 -4.526220 39.081100 -0.000007 -0.000012 0.131611 -0.068592 62.471000 40.985400 -0.000006 -0.000013 0.455368 -2.810070 -48.155200 11.754300 -0.000000 0.000003 -0.077656 -0.385349 -32.565500 -2.192510 6.469440 -0.000001 -176.124000 10.714400 157.170000 -39.081100 -0.002282 -0.040193 0.072307 -0.050781 53.678100 -40.985400 0.000008 0.000006 6.273460 -5.990520 -80.492900 -11.754300 -0.000006 -0.000006 -0.002576 -0.035705 -18.025100
